#!OML:ASF F:\VICON\USERDATA\INSTALL\rory3\rory3.ASF
:FULLY-SPECIFIED
:DEGREES
156
root 0.481256 18.0446 -1.81821 -3.97739 2.27878 -3.13447
lowerback 10.1156 -2.17164 1.07451
upperback 0.608651 -2.6031 3.09864
thorax -4.94004 -1.27667 3.00139
lowerneck -16.7176 -2.15573 -2.43635
upperneck 19.6253 -2.30043 -0.20038
head 8.93849 -1.28692 0.0468513
rclavicle -1.76918e-014 2.38542e-015
rhumerus -33.1828 -21.8031 -75.1176
rradius 21.1485
rwrist 8.06036
rhand -14.6658 25.8301
rfingers 7.12502
rthumb 11.4871 -3.83514
lclavicle -1.76918e-014 2.38542e-015
lhumerus -29.0548 -0.848349 79.581
lradius 32.3209
lwrist 8.22987
lhand -28.3198 25.4589
lfingers 7.12502
lthumb -1.69478 55.4319
rfemur -19.4975 4.36443 28.618
rtibia 32.8918
rfoot -6.79749 -8.3742
rtoes 6.28212
lfemur -1.43324 -3.07806 -16.465
ltibia 58.8166
lfoot 19.8327 -22.0518
ltoes 2.44025
157
root 0.477764 18.0385 -1.64954 -4.03869 2.33035 -3.12714
lowerback 10.1376 -2.17358 1.13969
upperback 0.68713 -2.60411 3.01216
thorax -4.87695 -1.28007 2.87244
lowerneck -16.6471 -2.21364 -2.35402
upperneck 19.6295 -2.40654 -0.192479
head 8.92711 -1.32971 0.0233988
rclavicle -2.36057e-015 2.18663e-014
rhumerus -32.6999 -21.7004 -75.5064
rradius 21.3535
rwrist 7.93717
rhand -14.6522 24.888
rfingers 7.12502
rthumb 11.5002 -4.77649
lclavicle -2.36057e-015 2.18663e-014
lhumerus -28.9559 -0.625892 79.6986
lradius 31.3479
lwrist 6.88519
lhand -26.9107 28.0162
lfingers 7.12502
lthumb -0.333832 57.9957
rfemur -18.8346 4.15674 28.7063
rtibia 32.9244
rfoot -7.38182 -8.38188
rtoes 6.857
lfemur -2.61073 -2.84377 -16.323
ltibia 60.4619
lfoot 17.2287 -22.3785
ltoes 6.82689
158
root 0.470528 18.0606 -1.4737 -4.1062 2.12403 -3.30126
lowerback 10.1588 -2.06483 1.37693
upperback 0.726241 -2.435 2.96627
thorax -4.86634 -1.20201 2.66693
lowerneck -16.6079 -2.28827 -2.37343
upperneck 19.7477 -2.52766 -0.0979826
head 8.96347 -1.37809 0.0432209
rclavicle 2.02015e-014 -2.70347e-014
rhumerus -32.3457 -21.2741 -75.9528
rradius 21.6878
rwrist 7.55259
rhand -14.5422 24.0374
rfingers 7.12502
rthumb 11.6063 -5.62121
lclavicle 2.02015e-014 -2.70347e-014
lhumerus -29.1447 -0.508304 79.8878
lradius 30.9823
lwrist 5.97719
lhand -26.5434 30.2547
lfingers 7.12502
lthumb 0.0209442 60.2344
rfemur -18.0212 4.08603 29.0125
rtibia 32.7808
rfoot -7.68802 -7.77014
rtoes 8.83985
lfemur -3.8136 -2.44373 -15.9734
ltibia 61.8476
lfoot 13.3641 -22.5702
ltoes 7.41515
159
root 0.460272 18.1062 -1.29494 -4.13988 1.8275 -3.68795
lowerback 10.2795 -1.91004 1.76505
upperback 0.676528 -2.17561 3.01729
thorax -5.00745 -1.08075 2.47247
lowerneck -16.5744 -2.34179 -2.47651
upperneck 19.9664 -2.6182 0.0857142
head 9.03791 -1.40894 0.11041
rclavicle 4.47762e-014 -1.55052e-014
rhumerus -32.0919 -20.6119 -76.3635
rradius 22.1996
rwrist 7.29203
rhand -14.7343 22.9128
rfingers 7.12502
rthumb 11.421 -6.75616
lclavicle 4.47762e-014 -1.55052e-014
lhumerus -29.4677 -0.466724 80.1604
lradius 30.8568
lwrist 5.6664
lhand -26.3936 30.8506
lfingers 7.12502
lthumb 0.165572 60.8303
rfemur -17.099 4.16586 29.5655
rtibia 32.3596
rfoot -8.01825 -7.23325
rtoes 9.92431
lfemur -5.09248 -2.04005 -15.3691
ltibia 62.9512
lfoot 9.96689 -22.0992
ltoes 2.99091
160
root 0.452467 18.1356 -1.12116 -4.11724 1.48966 -3.87406
lowerback 10.2821 -1.75814 1.94912
upperback 0.678063 -1.95239 3.01364
thorax -5.01987 -0.974587 2.33309
lowerneck -16.5172 -2.33387 -2.60909
upperneck 20.0552 -2.63716 0.360228
head 9.06424 -1.39803 0.223762
rclavicle 2.70968e-014 1.66979e-014
rhumerus -31.703 -20.1916 -76.7714
rradius 22.574
rwrist 7.50829
rhand -15.2743 21.2924
rfingers 7.12502
rthumb 10.9002 -8.40472
lclavicle 2.70968e-014 1.66979e-014
lhumerus -29.7942 -0.306389 80.3767
lradius 30.8687
lwrist 5.33513
lhand -25.5474 32.7298
lfingers 7.12502
lthumb 0.982916 62.7073
rfemur -16.0934 4.21432 29.8911
rtibia 31.5724
rfoot -8.52383 -7.51269
rtoes 7.52626
lfemur -6.35894 -1.57505 -15.0064
ltibia 63.8278
lfoot 9.05334 -20.0517
ltoes 0.42544
161
root 0.447017 18.1678 -0.950527 -4.13474 1.27171 -3.86155
lowerback 10.337 -1.63627 1.93775
upperback 0.702612 -1.7924 2.97363
thorax -5.02956 -0.895757 2.27578
lowerneck -16.4937 -2.38911 -2.6824
upperneck 20.0963 -2.71826 0.459978
head 9.07804 -1.43072 0.259704
rclavicle -3.73964e-015 1.27222e-014
rhumerus -31.2889 -19.3849 -77.3083
rradius 22.797
rwrist 7.00138
rhand -15.8286 20.7315
rfingers 7.12502
rthumb 10.3655 -8.99298
lclavicle -3.73964e-015 1.27222e-014
lhumerus -30.1852 -0.170166 80.6067
lradius 30.9811
lwrist 5.00886
lhand -24.9729 32.4083
lfingers 7.12502
lthumb 1.53775 62.3825
rfemur -15.0858 4.08268 29.9747
rtibia 30.9321
rfoot -9.14888 -7.76725
rtoes 6.48991
lfemur -7.80478 -1.12975 -14.9577
ltibia 64.5239
lfoot 6.60857 -18.5088
ltoes -2.18815
162
root 0.440136 18.2301 -0.774533 -4.17072 1.1471 -3.9355
lowerback 10.548 -1.55189 1.99982
upperback 0.717953 -1.66504 2.96785
thorax -5.13644 -0.834005 2.22341
lowerneck -16.5901 -2.4666 -2.53682
upperneck 20.1623 -2.8243 0.296931
head 9.11529 -1.48694 0.164959
rclavicle 2.54196e-014 -2.78299e-015
rhumerus -30.7773 -18.1439 -78.0009
rradius 23.0347
rwrist 5.7667
rhand -16.262 20.9566
rfingers 7.12502
rthumb 9.9474 -8.78841
lclavicle 2.54196e-014 -2.78299e-015
lhumerus -30.3467 0.157073 80.7773
lradius 30.7005
lwrist 4.71546
lhand -25.7838 29.2456
lfingers 7.12502
lthumb 0.754521 59.224
rfemur -14.1655 3.91832 30.1483
rtibia 30.5764
rfoot -9.86858 -7.69358
rtoes 6.33929
lfemur -9.84333 -0.671741 -14.9325
ltibia 65.122
lfoot 6.51345 -17.2673
ltoes -4.24415
163
root 0.440139 18.2154 -0.609531 -4.14036 0.890303 -3.92736
lowerback 10.5144 -1.36673 2.08507
upperback 0.786098 -1.41842 2.85716
thorax -5.05635 -0.715448 2.02
lowerneck -16.4314 -2.58512 -2.37769
upperneck 19.9422 -3.00774 0.183306
head 9.00827 -1.57299 0.0801965
rclavicle 2.07854e-014 -1.59028e-014
rhumerus -30.3166 -17.8266 -78.3847
rradius 23.2057
rwrist 5.44828
rhand -16.3679 21.2442
rfingers 7.12502
rthumb 9.84519 -8.50561
lclavicle 2.07854e-014 -1.59028e-014
lhumerus -30.3902 0.138965 80.9779
lradius 30.4538
lwrist 4.96909
lhand -25.9972 26.5393
lfingers 7.12502
lthumb 0.548434 56.5184
rfemur -13.5728 4.06055 30.2262
rtibia 30.5244
rfoot -10.2593 -7.67764
rtoes 6.04886
lfemur -10.0139 -0.86605 -14.7962
ltibia 65.7507
lfoot 2.95218 -15.7032
ltoes -9.29583
164
root 0.439348 18.1931 -0.442159 -4.06933 0.57089 -3.97029
lowerback 10.3397 -1.19994 2.19397
upperback 0.873095 -1.19908 2.76828
thorax -4.8755 -0.61036 1.82649
lowerneck -16.6398 -2.63517 -2.39085
upperneck 20.0132 -3.09502 0.301436
head 9.0741 -1.60099 0.108348
rclavicle -4.42296e-015 1.86858e-014
rhumerus -29.8408 -17.5264 -78.7597
rradius 23.4006
rwrist 5.41288
rhand -16.5541 21.4001
rfingers 7.12502
rthumb 9.66559 -8.35819
lclavicle -4.42296e-015 1.86858e-014
lhumerus -30.6342 -0.21861 81.2998
lradius 30.5075
lwrist 6.25837
lhand -25.8476 25.4371
lfingers 7.12502
lthumb 0.692971 55.4157
rfemur -12.9785 4.23104 30.3738
rtibia 30.4371
rfoot -10.4376 -7.64855
rtoes 5.44867
lfemur -10.5215 -0.191777 -14.6461
ltibia 66.2834
lfoot -2.6685 -14.0122
ltoes -22.2779
165
root 0.433336 18.1904 -0.275487 -4.00701 0.192323 -4.14895
lowerback 10.3127 -1.01393 2.43722
upperback 0.916886 -0.929969 2.70326
thorax -4.82334 -0.482935 1.58133
lowerneck -16.8052 -2.66933 -2.37086
upperneck 20.0628 -3.18973 0.502472
head 9.12575 -1.62061 0.159119
rclavicle 2.00773e-014 -6.75868e-015
rhumerus -29.3383 -16.8115 -79.3015
rradius 23.816
rwrist 5.00628
rhand -16.8156 21.8113
rfingers 7.12502
rthumb 9.41323 -7.95854
lclavicle 2.00773e-014 -6.75868e-015
lhumerus -30.8544 -0.342352 81.3953
lradius 30.9444
lwrist 5.83018
lhand -25.0751 31.2361
lfingers 7.12502
lthumb 1.43901 61.211
rfemur -12.4473 4.37855 30.6822
rtibia 30.5241
rfoot -10.8169 -7.60291
rtoes 5.40243
lfemur -11.6013 1.71464 -14.6509
ltibia 66.6699
lfoot -7.67898 -12.0843
ltoes -35.6203
166
root 0.432708 18.2307 -0.103272 -3.8415 -0.166311 -3.96078
lowerback 10.1808 -0.776577 2.35881
upperback 0.940155 -0.638264 2.54167
thorax -4.72849 -0.338547 1.41177
lowerneck -16.6176 -2.75066 -2.4264
upperneck 19.8028 -3.34521 0.744394
head 9.00955 -1.67144 0.235224
rclavicle -2.90723e-015 -1.94809e-014
rhumerus -28.9469 -15.5972 -79.9818
rradius 24.7949
rwrist 4.27391
rhand -17.2254 21.885
rfingers 7.12502
rthumb 9.0178 -7.90221
lclavicle -2.90723e-015 -1.94809e-014
lhumerus -31.0309 -0.427122 81.5445
lradius 31.0071
lwrist 5.72406
lhand -25.1156 32.3079
lfingers 7.12502
lthumb 1.39996 62.2831
rfemur -11.8793 4.38686 30.5265
rtibia 30.4632
rfoot -11.291 -7.43107
rtoes 6.33262
lfemur -13.4004 0.94473 -14.72
ltibia 66.416
lfoot -3.55287 -12.6619
ltoes -18.6257
167
root 0.434751 18.243 0.0686946 -3.7978 -0.534295 -4.04731
lowerback 10.2778 -0.580784 2.55651
upperback 0.885559 -0.353715 2.45811
thorax -4.84347 -0.203507 1.17504
lowerneck -16.5538 -2.82021 -2.45819
upperneck 19.8287 -3.46422 0.871303
head 9.01185 -1.71585 0.269304
rclavicle -2.33075e-014 1.51076e-014
rhumerus -28.959 -14.3372 -80.5656
rradius 25.967
rwrist 3.32706
rhand -17.3307 21.587
rfingers 7.12502
rthumb 8.91625 -8.20459
lclavicle -2.33075e-014 1.51076e-014
lhumerus -31.3325 -0.555276 81.6998
lradius 30.8525
lwrist 5.70401
lhand -25.3069 31.6765
lfingers 7.12502
lthumb 1.21513 61.6528
rfemur -11.1685 4.39168 30.6703
rtibia 30.2895
rfoot -11.7467 -7.23216
rtoes 7.51545
lfemur -14.7842 1.1039 -14.5671
ltibia 66.1822
lfoot -3.23135 -11.6736
ltoes -12.0884
168
root 0.44058 18.2347 0.234207 -3.65968 -0.831145 -4.09569
lowerback 10.3734 -0.449065 2.7153
upperback 0.759698 -0.154121 2.40862
thorax -5.02974 -0.110502 1.0078
lowerneck -16.6173 -2.83616 -2.55937
upperneck 19.9326 -3.48593 0.98831
head 9.06394 -1.72033 0.321582
rclavicle -7.59109e-015 2.66371e-014
rhumerus -28.7933 -13.4198 -80.9211
rradius 26.5376
rwrist 2.61389
rhand -17.2913 21.899
rfingers 7.12502
rthumb 8.95425 -7.89095
lclavicle -7.59109e-015 2.66371e-014
lhumerus -31.8141 -0.519145 81.8814
lradius 30.7918
lwrist 5.97585
lhand -25.6266 28.9827
lfingers 7.12502
lthumb 0.906416 58.9605
rfemur -10.5458 4.36896 30.7478
rtibia 29.9968
rfoot -12.1974 -7.04541
rtoes 7.515
lfemur -16.0256 1.15617 -14.4233
ltibia 65.8201
lfoot -3.27413 -10.4439
ltoes -5.45546
169
root 0.4451 18.2232 0.396722 -3.48837 -0.899538 -4.32989
lowerback 10.3717 -0.377796 3.10532
upperback 0.715958 -0.0153503 2.35296
thorax -5.07467 -0.0518371 0.710544
lowerneck -16.6243 -2.85688 -2.45629
upperneck 19.7397 -3.53504 0.972689
head 8.99718 -1.7372 0.294135
rclavicle -5.91384e-015 -3.18055e-015
rhumerus -28.4377 -13.0977 -81.195
rradius 26.914
rwrist 2.64588
rhand -16.9732 21.9658
rfingers 7.12502
rthumb 9.26118 -7.81076
lclavicle -5.91384e-015 -3.18055e-015
lhumerus -32.0024 -0.542532 81.9488
lradius 30.7398
lwrist 5.51971
lhand -25.3408 30.6692
lfingers 7.12502
lthumb 1.18245 60.6457
rfemur -9.97361 4.42333 31.0301
rtibia 29.7862
rfoot -12.6518 -7.02353
rtoes 8.18537
lfemur -17.2901 0.982296 -14.081
ltibia 65.511
lfoot -3.60992 -9.55932
ltoes -5.47553
170
root 0.444566 18.2305 0.562929 -3.34159 -0.978583 -4.69228
lowerback 10.3878 -0.282189 3.64864
upperback 0.618228 0.175586 2.27064
thorax -5.18283 0.0272033 0.292265
lowerneck -16.5858 -2.91553 -2.22175
upperneck 19.8251 -3.67207 0.934319
head 9.01628 -1.78784 0.225113
rclavicle -6.4605e-015 -5.56597e-015
rhumerus -28.4098 -12.3317 -81.6465
rradius 27.7106
rwrist 2.0954
rhand -17.0283 21.5046
rfingers 7.12502
rthumb 9.20802 -8.27439
lclavicle -6.4605e-015 -5.56597e-015
lhumerus -32.5696 -1.06644 82.1063
lradius 30.9846
lwrist 6.31895
lhand -25.6853 28.8403
lfingers 7.12502
lthumb 0.849725 58.8184
rfemur -9.40016 4.50773 31.4795
rtibia 29.6302
rfoot -13.1696 -7.06846
rtoes 9.07282
lfemur -18.6048 0.968511 -13.6399
ltibia 65.0574
lfoot -4.42818 -8.77512
ltoes -9.44352
